<?xml version="1.0" encoding="UTF-8"?>
<svg shape-rendering="geometricPrecision" xmlns="http://www.w3.org/2000/svg" width="174" height="174" viewBox="0 0 174 174">  <g stroke="#1F2C2A" stroke-linejoin="round" stroke-linecap="round" stroke-width="4.2">

    <polygon points="10.00,125.50 30.45,137.31 30.45,113.69 10.00,101.89" fill="#8FA7A1"/>
    <polygon points="10.00,97.78 30.45,109.59 30.45,88.03 10.00,76.22" fill="#8FA7A1"/>
    <polygon points="10.00,72.11 30.45,83.92 30.45,60.31 10.00,48.50" fill="#8FA7A1"/>
    <polygon points="34.01,139.36 52.68,150.14 52.68,126.53 34.01,115.75" fill="#8FA7A1"/>
    <polygon points="34.01,111.64 52.68,122.42 52.68,100.86 34.01,90.08" fill="#8FA7A1"/>
    <polygon points="34.01,85.97 52.68,96.75 52.68,73.14 34.01,62.36" fill="#8FA7A1"/>
    <polygon points="56.23,152.19 76.68,164.00 76.68,140.39 56.23,128.58" fill="#8FA7A1"/>
    <polygon points="56.23,124.47 76.68,136.28 76.68,114.72 56.23,102.91" fill="#8FA7A1"/>
    <polygon points="56.23,98.81 76.68,110.61 76.68,87.00 56.23,75.19" fill="#8FA7A1"/>
    <polygon points="143.37,125.50 122.92,137.31 122.92,113.69 143.37,101.89" fill="#66C9C3"/>
    <polygon points="143.37,97.78 122.92,109.59 122.92,88.03 143.37,76.22" fill="#66C9C3"/>
    <polygon points="143.37,72.11 122.92,83.92 122.92,60.31 143.37,48.50" fill="#66C9C3"/>
    <polygon points="119.36,139.36 100.69,150.14 100.69,126.53 119.36,115.75" fill="#66C9C3"/>
    <polygon points="119.36,111.64 100.69,122.42 100.69,100.86 119.36,90.08" fill="#66C9C3"/>
    <polygon points="119.36,85.97 100.69,96.75 100.69,73.14 119.36,62.36" fill="#66C9C3"/>
    <polygon points="97.13,152.19 76.68,164.00 76.68,140.39 97.13,128.58" fill="#66C9C3"/>
    <polygon points="97.13,124.47 76.68,136.28 76.68,114.72 97.13,102.91" fill="#66C9C3"/>
    <polygon points="97.13,98.81 76.68,110.61 76.68,87.00 97.13,75.19" fill="#66C9C3"/>
    <polygon points="76.68,10.00 97.13,21.81 76.68,33.61 56.23,21.81" fill="#0BA39C"/>
    <polygon points="52.68,23.86 73.13,35.67 54.46,46.45 34.01,34.64" fill="#0BA39C"/>
    <polygon points="30.45,36.69 50.90,48.50 30.45,60.31 10.00,48.50" fill="#0BA39C"/>
    <polygon points="100.69,23.86 119.36,34.64 98.91,46.45 80.24,35.67" fill="#0BA39C"/>
    <polygon points="76.68,37.72 95.36,48.50 76.68,59.28 58.01,48.50" fill="#0BA39C"/>
    <polygon points="54.46,50.55 73.13,61.33 52.68,73.14 34.01,62.36" fill="#0BA39C"/>
    <polygon points="122.92,36.69 143.37,48.50 122.92,60.31 102.47,48.50" fill="#0BA39C"/>
    <polygon points="98.91,50.55 119.36,62.36 100.69,73.14 80.24,61.33" fill="#0BA39C"/>
    <polygon points="76.68,63.39 97.13,75.19 76.68,87.00 56.23,75.19" fill="#0BA39C"/>
  </g>
  <g stroke="#FFFFFF" stroke-linejoin="round" stroke-linecap="round" stroke-width="1.4">

    <polygon points="10.00,125.50 30.45,137.31 30.45,113.69 10.00,101.89" fill="#8FA7A1"/>
    <polygon points="10.00,97.78 30.45,109.59 30.45,88.03 10.00,76.22" fill="#8FA7A1"/>
    <polygon points="10.00,72.11 30.45,83.92 30.45,60.31 10.00,48.50" fill="#8FA7A1"/>
    <polygon points="34.01,139.36 52.68,150.14 52.68,126.53 34.01,115.75" fill="#8FA7A1"/>
    <polygon points="34.01,111.64 52.68,122.42 52.68,100.86 34.01,90.08" fill="#8FA7A1"/>
    <polygon points="34.01,85.97 52.68,96.75 52.68,73.14 34.01,62.36" fill="#8FA7A1"/>
    <polygon points="56.23,152.19 76.68,164.00 76.68,140.39 56.23,128.58" fill="#8FA7A1"/>
    <polygon points="56.23,124.47 76.68,136.28 76.68,114.72 56.23,102.91" fill="#8FA7A1"/>
    <polygon points="56.23,98.81 76.68,110.61 76.68,87.00 56.23,75.19" fill="#8FA7A1"/>
    <polygon points="143.37,125.50 122.92,137.31 122.92,113.69 143.37,101.89" fill="#66C9C3"/>
    <polygon points="143.37,97.78 122.92,109.59 122.92,88.03 143.37,76.22" fill="#66C9C3"/>
    <polygon points="143.37,72.11 122.92,83.92 122.92,60.31 143.37,48.50" fill="#66C9C3"/>
    <polygon points="119.36,139.36 100.69,150.14 100.69,126.53 119.36,115.75" fill="#66C9C3"/>
    <polygon points="119.36,111.64 100.69,122.42 100.69,100.86 119.36,90.08" fill="#66C9C3"/>
    <polygon points="119.36,85.97 100.69,96.75 100.69,73.14 119.36,62.36" fill="#66C9C3"/>
    <polygon points="97.13,152.19 76.68,164.00 76.68,140.39 97.13,128.58" fill="#66C9C3"/>
    <polygon points="97.13,124.47 76.68,136.28 76.68,114.72 97.13,102.91" fill="#66C9C3"/>
    <polygon points="97.13,98.81 76.68,110.61 76.68,87.00 97.13,75.19" fill="#66C9C3"/>
    <polygon points="76.68,10.00 97.13,21.81 76.68,33.61 56.23,21.81" fill="#0BA39C"/>
    <polygon points="52.68,23.86 73.13,35.67 54.46,46.45 34.01,34.64" fill="#0BA39C"/>
    <polygon points="30.45,36.69 50.90,48.50 30.45,60.31 10.00,48.50" fill="#0BA39C"/>
    <polygon points="100.69,23.86 119.36,34.64 98.91,46.45 80.24,35.67" fill="#0BA39C"/>
    <polygon points="76.68,37.72 95.36,48.50 76.68,59.28 58.01,48.50" fill="#0BA39C"/>
    <polygon points="54.46,50.55 73.13,61.33 52.68,73.14 34.01,62.36" fill="#0BA39C"/>
    <polygon points="122.92,36.69 143.37,48.50 122.92,60.31 102.47,48.50" fill="#0BA39C"/>
    <polygon points="98.91,50.55 119.36,62.36 100.69,73.14 80.24,61.33" fill="#0BA39C"/>
    <polygon points="76.68,63.39 97.13,75.19 76.68,87.00 56.23,75.19" fill="#0BA39C"/>
  </g>
</svg>